<?xml version="1.0" encoding="UTF-8" standalone="no"?>
<!-- Created with Inkscape (http://www.inkscape.org/) -->

<svg
   xmlns:dc="http://purl.org/dc/elements/1.1/"
   xmlns:cc="http://creativecommons.org/ns#"
   xmlns:rdf="http://www.w3.org/1999/02/22-rdf-syntax-ns#"
   xmlns:svg="http://www.w3.org/2000/svg"
   xmlns="http://www.w3.org/2000/svg"
   xmlns:sodipodi="http://sodipodi.sourceforge.net/DTD/sodipodi-0.dtd"
   xmlns:inkscape="http://www.inkscape.org/namespaces/inkscape"
   width="372.67841mm"
   height="223.73378mm"
   viewBox="0 0 372.67841 223.73378"
   version="1.1"
   id="svg39"
   inkscape:version="0.92.1 15371"
   sodipodi:docname="fidget spinner 2d.svg">
  <defs
     id="defs33" />
  <sodipodi:namedview
     id="base"
     pagecolor="#ffffff"
     bordercolor="#666666"
     borderopacity="1.0"
     inkscape:pageopacity="0.0"
     inkscape:pageshadow="2"
     inkscape:zoom="0.57789995"
     inkscape:cx="979.40828"
     inkscape:cy="422.80399"
     inkscape:document-units="mm"
     inkscape:current-layer="layer1"
     showgrid="false"
     inkscape:snap-global="false"
     showguides="false"
     fit-margin-top="0"
     fit-margin-left="0"
     fit-margin-right="0"
     fit-margin-bottom="0"
     inkscape:window-width="1301"
     inkscape:window-height="744"
     inkscape:window-x="65"
     inkscape:window-y="24"
     inkscape:window-maximized="1" />
  <metadata
     id="metadata36">
    <rdf:RDF>
      <cc:Work
         rdf:about="">
        <dc:format>image/svg+xml</dc:format>
        <dc:type
           rdf:resource="http://purl.org/dc/dcmitype/StillImage" />
        <dc:title></dc:title>
      </cc:Work>
    </rdf:RDF>
  </metadata>
  <g
     inkscape:label="Layer 1"
     inkscape:groupmode="layer"
     id="layer1"
     transform="translate(234.54419,85.18869)">
    <g
       id="g899"
       transform="matrix(0.54645862,0,0,0.54645862,-91.063354,-93.523781)">
      <path
         sodipodi:nodetypes="cssscsssssscssccscsscssccsccscccc"
         inkscape:connector-curvature="0"
         id="path60"
         d="m -169.22291,203.40075 c -8.18803,-3.45155 -13.71581,-7.91891 -18.25714,-14.7548 -8.35222,-12.57231 -8.78105,-27.17933 -1.19916,-40.84667 2.19071,-3.94905 2.26864,-4.4229 2.26864,-13.79438 v -9.70486 l -2.55711,-3.59252 c -1.40641,-1.97589 -3.44252,-5.35737 -4.52469,-7.5144 -2.31092,-4.60623 -4.88445,-6.72108 -13.69663,-11.2555 -5.64379,-2.904076 -7.11843,-3.343446 -11.22162,-3.343446 -20.38031,0 -37.74911,-17.006921 -37.82985,-37.041671 -0.0454,-11.25603 3.43728,-19.72308 11.32502,-27.53358 11.88454,-11.76817 27.84258,-14.65834 42.89244,-7.76829 4.83493,2.21351 13.34474,10.00251 16.75839,15.33891 1.96232,3.06759 3.8483,4.71409 8.80222,7.68451 10.56337,6.3339 10.80655,6.4213 16.41398,5.89895 2.75543,-0.25667 6.78566,-0.16932 8.95608,0.19411 3.88499,0.65055 4.05498,0.59728 10.9613,-3.43498 8.16771,-4.76872 10.03567,-6.35817 12.0201,-10.22799 2.34804,-4.57892 10.7683,-12.94722 15.64063,-15.54415 17.261863,-9.20048 37.935403,-4.19421 48.861423,11.83221 10.66305,15.64066 9.04478,35.11673 -4.02794,48.476691 -6.53073,6.67424 -13.38196,9.74883 -25.43722,11.41535 -6.14638,0.84967 -9.237323,2.10542 -18.504783,7.517896 -4.06029,2.37134 -5.70404,3.87107 -7.26953,6.63258 -1.11257,1.96261 -2.99199,5.12896 -4.17647,7.03634 -2.11021,3.3981 -2.1536,3.68981 -2.1536,14.47948 v 11.01152 l 3.13052,6.52415 c 2.79913,5.83356 3.16928,7.26556 3.49686,13.52843 0.20159,3.85408 -0.0127,8.77195 -0.47651,10.93454 -2.36336,11.01995 -10.37206,21.10695 -20.8824,26.30143 -5.74707,2.84037 -6.0924,2.91084 -15.41736,3.1461 -8.70732,0.21969 -9.91831,0.0806 -13.89559,-1.59596 z"
         style="opacity:1;fill:#2d2d2d;fill-opacity:1;stroke:#9ade00;stroke-width:3;stroke-miterlimit:4;stroke-dasharray:none;stroke-opacity:1" />
      <path
         style="opacity:1;fill:#ffffff;fill-opacity:1;stroke:#9ade00;stroke-width:3;stroke-miterlimit:4;stroke-dasharray:none;stroke-opacity:1"
         d="m -169.22291,203.40075 c -8.18803,-3.45155 -13.71581,-7.91891 -18.25714,-14.7548 -8.35222,-12.57231 -8.78105,-27.17933 -1.19916,-40.84667 2.19071,-3.94905 2.26864,-4.4229 2.26864,-13.79438 v -9.70486 l -2.55711,-3.59252 c -1.40641,-1.97589 -3.44252,-5.35737 -4.52469,-7.5144 -2.31092,-4.60623 -4.88445,-6.72108 -13.69663,-11.2555 -5.64379,-2.904076 -7.11843,-3.343446 -11.22162,-3.343446 -20.38031,0 -37.74911,-17.006921 -37.82985,-37.041671 -0.0454,-11.25603 3.43728,-19.72308 11.32502,-27.53358 11.88454,-11.76817 27.84258,-14.65834 42.89244,-7.76829 4.83493,2.21351 13.34474,10.00251 16.75839,15.33891 1.96232,3.06759 3.8483,4.71409 8.80222,7.68451 10.56337,6.3339 10.80655,6.4213 16.41398,5.89895 2.75543,-0.25667 6.78566,-0.16932 8.95608,0.19411 3.88499,0.65055 4.05498,0.59728 10.9613,-3.43498 8.16771,-4.76872 10.03567,-6.35817 12.0201,-10.22799 2.34804,-4.57892 10.7683,-12.94722 15.64063,-15.54415 17.261863,-9.20048 37.935403,-4.19421 48.861423,11.83221 10.66305,15.64066 9.04478,35.11673 -4.02794,48.476691 -6.53073,6.67424 -13.38196,9.74883 -25.43722,11.41535 -6.14638,0.84967 -9.237323,2.10542 -18.504783,7.517896 -4.06029,2.37134 -5.70404,3.87107 -7.26953,6.63258 -1.11257,1.96261 -2.99199,5.12896 -4.17647,7.03634 -2.11021,3.3981 -2.1536,3.68981 -2.1536,14.47948 v 11.01152 l 3.13052,6.52415 c 2.79913,5.83356 3.16928,7.26556 3.49686,13.52843 0.20159,3.85408 -0.0127,8.77195 -0.47651,10.93454 -2.36336,11.01995 -10.37206,21.10695 -20.8824,26.30143 -5.74707,2.84037 -6.0924,2.91084 -15.41736,3.1461 -8.70732,0.21969 -9.91831,0.0806 -13.89559,-1.59596 z"
         id="path888"
         inkscape:connector-curvature="0"
         sodipodi:nodetypes="cssscsssssscssccscsscssccsccscccc" />
      <path
         d="m -155.80965,65.039394 a 30.783751,30.783751 0 0 0 -30.78351,30.783516 30.783751,30.783751 0 0 0 30.78351,30.78394 30.783751,30.783751 0 0 0 30.78394,-30.78394 30.783751,30.783751 0 0 0 -30.78394,-30.783516 z m 0,12.250399 a 18.533272,18.533272 0 0 1 18.53354,18.533117 18.533272,18.533272 0 0 1 -18.53354,18.53353 18.533272,18.533272 0 0 1 -18.5331,-18.53353 18.533272,18.533272 0 0 1 18.5331,-18.533117 z m 15.39181,18.533327 a 15.391585,15.391585 0 0 1 -15.39159,15.39159 15.391585,15.391585 0 0 1 -15.39158,-15.39159 15.391585,15.391585 0 0 1 15.39158,-15.391584 15.391585,15.391585 0 0 1 15.39159,15.391584 z"
         style="opacity:1;fill:#9ade00;fill-opacity:1;stroke:none;stroke-width:0.70210028;stroke-miterlimit:4;stroke-dasharray:none;stroke-opacity:1"
         id="path876"
         inkscape:connector-curvature="0" />
      <path
         inkscape:connector-curvature="0"
         id="path878"
         style="opacity:1;fill:#9ade00;fill-opacity:1;stroke:none;stroke-width:0.70210028;stroke-miterlimit:4;stroke-dasharray:none;stroke-opacity:1"
         d="m -217.80765,29.304437 a 30.783751,30.783751 0 0 0 -30.78351,30.783516 30.783751,30.783751 0 0 0 30.78351,30.78394 30.783751,30.783751 0 0 0 30.78394,-30.78394 30.783751,30.783751 0 0 0 -30.78394,-30.783516 z m 0,12.250399 a 18.533272,18.533272 0 0 1 18.53354,18.533117 18.533272,18.533272 0 0 1 -18.53354,18.53353 18.533272,18.533272 0 0 1 -18.5331,-18.53353 18.533272,18.533272 0 0 1 18.5331,-18.533117 z m 15.39181,18.533327 a 15.391585,15.391585 0 0 1 -15.39159,15.39159 15.391585,15.391585 0 0 1 -15.39158,-15.39159 15.391585,15.391585 0 0 1 15.39158,-15.391584 15.391585,15.391585 0 0 1 15.39159,15.391584 z" />
      <path
         d="m -93.811655,28.012812 a 30.783751,30.783751 0 0 0 -30.783505,30.783516 30.783751,30.783751 0 0 0 30.783505,30.78394 30.783751,30.783751 0 0 0 30.78394,-30.78394 30.783751,30.783751 0 0 0 -30.78394,-30.783516 z m 0,12.250399 a 18.533272,18.533272 0 0 1 18.53354,18.533117 18.533272,18.533272 0 0 1 -18.53354,18.53353 18.533272,18.533272 0 0 1 -18.533095,-18.53353 18.533272,18.533272 0 0 1 18.533095,-18.533117 z m 15.39181,18.533327 a 15.391585,15.391585 0 0 1 -15.39159,15.39159 15.391585,15.391585 0 0 1 -15.391575,-15.39159 15.391585,15.391585 0 0 1 15.391575,-15.391584 15.391585,15.391585 0 0 1 15.39159,15.391584 z"
         style="opacity:1;fill:#9ade00;fill-opacity:1;stroke:none;stroke-width:0.70210028;stroke-miterlimit:4;stroke-dasharray:none;stroke-opacity:1"
         id="path880"
         inkscape:connector-curvature="0" />
      <path
         inkscape:connector-curvature="0"
         id="path882"
         style="opacity:1;fill:#9ade00;fill-opacity:1;stroke:none;stroke-width:0.70210028;stroke-miterlimit:4;stroke-dasharray:none;stroke-opacity:1"
         d="m -155.80965,136.07877 a 30.783751,30.783751 0 0 0 -30.78351,30.78351 30.783751,30.783751 0 0 0 30.78351,30.78394 30.783751,30.783751 0 0 0 30.78394,-30.78394 30.783751,30.783751 0 0 0 -30.78394,-30.78351 z m 0,12.2504 a 18.533272,18.533272 0 0 1 18.53354,18.53311 18.533272,18.533272 0 0 1 -18.53354,18.53353 18.533272,18.533272 0 0 1 -18.5331,-18.53353 18.533272,18.533272 0 0 1 18.5331,-18.53311 z m 15.39181,18.53332 a 15.391585,15.391585 0 0 1 -15.39159,15.39159 15.391585,15.391585 0 0 1 -15.39158,-15.39159 15.391585,15.391585 0 0 1 15.39158,-15.39158 15.391585,15.391585 0 0 1 15.39159,15.39158 z" />
      <path
         d="m -92.035156,16.818359 c -7.613725,-0.426428 -15.462404,1.225635 -22.705074,5.085938 -3.31637,1.767606 -6.67667,4.661182 -9.89844,7.863281 -3.22177,3.202099 -6.06782,6.425426 -7.76563,9.736328 -0.83413,1.626643 -1.23383,2.20558 -2.52343,3.302735 -1.28961,1.097154 -3.61402,2.611469 -7.63477,4.958984 -3.44638,2.012173 -5.17137,2.894898 -5.625,3.037109 -0.45363,0.142212 -0.19758,0.126448 -2.10742,-0.193359 -3.0068,-0.503479 -6.91338,-0.544541 -10.20117,-0.238281 -2.77216,0.258235 -3.00367,0.339913 -4.26953,-0.115235 -1.26587,-0.455148 -3.94059,-1.955474 -9.2168,-5.11914 -4.74279,-2.843823 -5.5899,-3.60018 -7.21875,-6.146485 -4.22662,-6.607279 -12.03302,-14.022299 -18.81445,-17.126953 -16.68772,-7.639882 -35.15703,-4.280742 -48.29493,8.728516 -8.62186,8.537438 -12.80335,18.71997 -12.7539,30.980469 0.0919,22.811551 19.59062,41.845704 42.65429,41.845704 3.75861,0 3.49753,-0.0298 9.01368,2.80859 4.30466,2.21502 6.89118,3.77319 8.43164,5.03906 1.54045,1.26588 2.19585,2.16386 3.16211,4.08985 1.26413,2.51974 3.26834,5.84732 4.90625,8.14844 l 1.6621,2.33789 v 8.16406 c 0,4.67222 -0.0644,7.03104 -0.24804,8.14648 -0.18363,1.11545 -0.34834,1.38201 -1.41602,3.30664 -8.3266,15.00979 -7.86268,31.91403 1.40039,45.85743 5.00389,7.53216 11.55793,12.80105 20.40235,16.52929 2.10605,0.88778 4.09878,1.58018 6.49609,1.85547 2.39731,0.2753 5.00767,0.22782 9.39258,0.11719 9.34569,-0.23578 11.64537,-0.78187 17.43359,-3.64258 11.86166,-5.86234 20.75757,-17.00075 23.46289,-29.61523 0.71428,-3.33045 0.79826,-7.95137 0.57617,-12.19727 -0.3355,-6.41443 -1.10442,-9.40198 -3.96484,-15.36328 l -2.6543,-5.53516 v -9.91406 c 0,-5.38856 0.0585,-8.13193 0.23243,-9.30273 0.17391,-1.1708 0.16341,-0.97427 1.19336,-2.63282 1.23896,-1.99511 3.10998,-5.14535 4.27539,-7.20117 1.22065,-2.15322 1.72288,-2.63518 5.50781,-4.8457 9.144729,-5.3408 11.005297,-6.11481 16.730468,-6.90625 12.607039,-1.7428 21.032423,-5.470082 28.224609,-12.820313 C -49.616939,74.949088 -47.78227,52.64355 -59.623047,35.275391 -67.28408,24.038092 -79.345834,17.52906 -92.035156,16.818359 Z"
         id="path884"
         style="opacity:1;fill:none;fill-opacity:1;stroke:#9ade00;stroke-width:3;stroke-miterlimit:4;stroke-dasharray:none;stroke-opacity:1"
         inkscape:original="M -92.304688 21.634766 C -99.043478 21.257341 -105.9975 22.709976 -112.4707 26.160156 C -117.34303 28.757086 -125.76329 37.126158 -128.11133 41.705078 C -130.09576 45.574898 -131.96315 47.162921 -140.13086 51.931641 C -147.03718 55.963901 -147.20681 56.017738 -151.0918 55.367188 C -153.26222 55.003758 -157.2934 54.917158 -160.04883 55.173828 C -165.65626 55.696178 -165.89952 55.607337 -176.46289 49.273438 C -181.41681 46.303018 -183.30135 44.657434 -185.26367 41.589844 C -188.67732 36.253444 -197.18851 28.46351 -202.02344 26.25 C -217.0733 19.35995 -233.03148 22.251361 -244.91602 34.019531 C -252.80376 41.830031 -256.28563 50.296704 -256.24023 61.552734 C -256.15949 81.587484 -238.79047 98.59375 -218.41016 98.59375 C -214.30697 98.59375 -212.83324 99.033424 -207.18945 101.9375 C -198.37727 106.47192 -195.80311 108.58713 -193.49219 113.19336 C -192.41002 115.35039 -190.37321 118.73114 -188.9668 120.70703 L -186.41016 124.30078 L -186.41016 134.00586 C -186.41016 143.37734 -186.48898 143.84978 -188.67969 147.79883 C -196.26158 161.46617 -195.83269 176.07417 -187.48047 188.64648 C -182.93914 195.48237 -177.41069 199.94884 -169.22266 203.40039 C -165.24538 205.07695 -164.03545 205.21578 -155.32812 204.99609 C -146.00316 204.76083 -145.65723 204.69193 -139.91016 201.85156 C -129.39982 196.65708 -121.3907 186.56878 -119.02734 175.54883 C -118.56353 173.38624 -118.34919 168.46931 -118.55078 164.61523 C -118.87836 158.35236 -119.2497 156.9195 -122.04883 151.08594 L -125.17773 144.5625 L -125.17773 133.55078 C -125.17773 122.76111 -125.1356 122.46841 -123.02539 119.07031 C -121.84091 117.16293 -119.96023 113.99777 -118.84766 112.03516 C -117.28217 109.27365 -115.63841 107.77368 -111.57812 105.40234 C -102.31067 99.989868 -99.220599 98.734436 -93.074219 97.884766 C -81.018959 96.218246 -74.167449 93.14299 -67.636719 86.46875 C -54.563999 73.108789 -52.946325 53.632847 -63.609375 37.992188 C -70.438137 27.975675 -81.07337 22.263807 -92.304688 21.634766 z "
         inkscape:radius="4.8236122"
         sodipodi:type="inkscape:offset" />
    </g>
    <g
       id="g1002"
       transform="matrix(0.54645862,0,0,0.54645862,204.39109,-37.999306)">
      <path
         style="opacity:1;fill:#2d2d2d;fill-opacity:1;stroke:#9ade00;stroke-width:3;stroke-miterlimit:4;stroke-dasharray:none;stroke-opacity:1"
         d="m -261.35882,101.79292 c -8.18803,-3.45155 -13.71581,-7.91891 -18.25714,-14.7548 -8.35222,-12.57231 -8.78105,-27.17933 -1.19916,-40.84667 2.19071,-3.94905 2.26864,-4.4229 2.26864,-13.79438 v -9.70486 l -2.55711,-3.59252 c -1.40641,-1.97589 -3.44252,-5.35737 -4.52469,-7.5144 -2.31092,-4.60623 -4.88445,-6.72108 -13.69663,-11.2555 -5.64379,-2.904076 -7.11843,-3.343446 -11.22162,-3.343446 -20.38031,0 -37.74911,-17.006921 -37.82985,-37.041671 -0.0454,-11.25603 3.43728,-19.72308 11.32502,-27.53358 11.88454,-11.76817 27.84258,-14.65834 42.89244,-7.76829 4.83493,2.21351 13.34474,10.00251 16.75839,15.33891 1.96232,3.06759 3.8483,4.71409 8.80222,7.68451 10.56337,6.3339 10.80655,6.4213 16.41398,5.89895 2.75543,-0.25667 6.78566,-0.16932 8.95608,0.19411 3.88499,0.65055 4.05498,0.59728 10.9613,-3.43498 8.16771,-4.76872 10.03567,-6.35817 12.0201,-10.22799 2.34804,-4.57892 10.7683,-12.94722 15.64063,-15.54415 17.26186,-9.20048 37.9354,-4.19421 48.86142,11.83221 10.66305,15.64066 9.04478,35.11673 -4.02794,48.476691 -6.53073,6.67424 -13.38196,9.74883 -25.43722,11.41535 -6.14638,0.84967 -9.23732,2.10542 -18.50478,7.517896 -4.06029,2.37134 -5.70404,3.87107 -7.26953,6.63258 -1.11257,1.96261 -2.99199,5.12896 -4.17647,7.03634 -2.11021,3.3981 -2.1536,3.68981 -2.1536,14.47948 v 11.01152 l 3.13052,6.52415 c 2.79913,5.83356 3.16928,7.26556 3.49686,13.52843 0.20159,3.85408 -0.0127,8.77195 -0.47651,10.93454 -2.36336,11.01995 -10.37206,21.10695 -20.8824,26.30143 -5.74707,2.84037 -6.0924,2.91084 -15.41736,3.1461 -8.70732,0.21969 -9.91831,0.0806 -13.89559,-1.59596 z"
         id="path912"
         inkscape:connector-curvature="0"
         sodipodi:nodetypes="cssscsssssscssccscsscssccsccscccc" />
      <path
         sodipodi:nodetypes="cssscsssssscssccscsscssccsccscccc"
         inkscape:connector-curvature="0"
         id="path914"
         d="m -261.35882,101.79292 c -8.18803,-3.45155 -13.71581,-7.91891 -18.25714,-14.7548 -8.35222,-12.57231 -8.78105,-27.17933 -1.19916,-40.84667 2.19071,-3.94905 2.26864,-4.4229 2.26864,-13.79438 v -9.70486 l -2.55711,-3.59252 c -1.40641,-1.97589 -3.44252,-5.35737 -4.52469,-7.5144 -2.31092,-4.60623 -4.88445,-6.72108 -13.69663,-11.2555 -5.64379,-2.904076 -7.11843,-3.343446 -11.22162,-3.343446 -20.38031,0 -37.74911,-17.006921 -37.82985,-37.041671 -0.0454,-11.25603 3.43728,-19.72308 11.32502,-27.53358 11.88454,-11.76817 27.84258,-14.65834 42.89244,-7.76829 4.83493,2.21351 13.34474,10.00251 16.75839,15.33891 1.96232,3.06759 3.8483,4.71409 8.80222,7.68451 10.56337,6.3339 10.80655,6.4213 16.41398,5.89895 2.75543,-0.25667 6.78566,-0.16932 8.95608,0.19411 3.88499,0.65055 4.05498,0.59728 10.9613,-3.43498 8.16771,-4.76872 10.03567,-6.35817 12.0201,-10.22799 2.34804,-4.57892 10.7683,-12.94722 15.64063,-15.54415 17.26186,-9.20048 37.9354,-4.19421 48.86142,11.83221 10.66305,15.64066 9.04478,35.11673 -4.02794,48.476691 -6.53073,6.67424 -13.38196,9.74883 -25.43722,11.41535 -6.14638,0.84967 -9.23732,2.10542 -18.50478,7.517896 -4.06029,2.37134 -5.70404,3.87107 -7.26953,6.63258 -1.11257,1.96261 -2.99199,5.12896 -4.17647,7.03634 -2.11021,3.3981 -2.1536,3.68981 -2.1536,14.47948 v 11.01152 l 3.13052,6.52415 c 2.79913,5.83356 3.16928,7.26556 3.49686,13.52843 0.20159,3.85408 -0.0127,8.77195 -0.47651,10.93454 -2.36336,11.01995 -10.37206,21.10695 -20.8824,26.30143 -5.74707,2.84037 -6.0924,2.91084 -15.41736,3.1461 -8.70732,0.21969 -9.91831,0.0806 -13.89559,-1.59596 z"
         style="opacity:1;fill:#fcea40;fill-opacity:1;stroke:#fceb40;stroke-width:3;stroke-miterlimit:4;stroke-dasharray:none;stroke-opacity:1" />
      <path
         inkscape:connector-curvature="0"
         id="path916"
         style="opacity:1;fill:#0e232e;fill-opacity:1;stroke:none;stroke-width:0.70210028;stroke-miterlimit:4;stroke-dasharray:none;stroke-opacity:1"
         d="m -247.94556,-36.568436 a 30.783751,30.783751 0 0 0 -30.78351,30.783516 30.783751,30.783751 0 0 0 30.78351,30.78394 30.783751,30.783751 0 0 0 30.78394,-30.78394 30.783751,30.783751 0 0 0 -30.78394,-30.783516 z m 0,12.250399 a 18.533272,18.533272 0 0 1 18.53354,18.533117 18.533272,18.533272 0 0 1 -18.53354,18.53353 18.533272,18.533272 0 0 1 -18.5331,-18.53353 18.533272,18.533272 0 0 1 18.5331,-18.533117 z m 15.39181,18.533327 a 15.391585,15.391585 0 0 1 -15.39159,15.39159 15.391585,15.391585 0 0 1 -15.39158,-15.39159 15.391585,15.391585 0 0 1 15.39158,-15.391584 15.391585,15.391585 0 0 1 15.39159,15.391584 z" />
      <path
         d="m -309.94356,-72.303393 a 30.783751,30.783751 0 0 0 -30.78351,30.783516 30.783751,30.783751 0 0 0 30.78351,30.78394 30.783751,30.783751 0 0 0 30.78394,-30.78394 30.783751,30.783751 0 0 0 -30.78394,-30.783516 z m 0,12.250399 a 18.533272,18.533272 0 0 1 18.53354,18.533117 18.533272,18.533272 0 0 1 -18.53354,18.53353 18.533272,18.533272 0 0 1 -18.5331,-18.53353 18.533272,18.533272 0 0 1 18.5331,-18.533117 z m 15.39181,18.533327 a 15.391585,15.391585 0 0 1 -15.39159,15.39159 15.391585,15.391585 0 0 1 -15.39158,-15.39159 15.391585,15.391585 0 0 1 15.39158,-15.391584 15.391585,15.391585 0 0 1 15.39159,15.391584 z"
         style="opacity:1;fill:#0e232e;fill-opacity:1;stroke:none;stroke-width:0.70210028;stroke-miterlimit:4;stroke-dasharray:none;stroke-opacity:1"
         id="path918"
         inkscape:connector-curvature="0" />
      <path
         inkscape:connector-curvature="0"
         id="path920"
         style="opacity:1;fill:#0e232e;fill-opacity:1;stroke:none;stroke-width:0.70210028;stroke-miterlimit:4;stroke-dasharray:none;stroke-opacity:1"
         d="m -185.94756,-73.595018 a 30.783751,30.783751 0 0 0 -30.78351,30.783516 30.783751,30.783751 0 0 0 30.78351,30.78394 30.783751,30.783751 0 0 0 30.78394,-30.78394 30.783751,30.783751 0 0 0 -30.78394,-30.783516 z m 0,12.250399 a 18.533272,18.533272 0 0 1 18.53354,18.533117 18.533272,18.533272 0 0 1 -18.53354,18.53353 18.533272,18.533272 0 0 1 -18.5331,-18.53353 18.533272,18.533272 0 0 1 18.5331,-18.533117 z m 15.39181,18.533327 a 15.391585,15.391585 0 0 1 -15.39159,15.39159 15.391585,15.391585 0 0 1 -15.39158,-15.39159 15.391585,15.391585 0 0 1 15.39158,-15.391584 15.391585,15.391585 0 0 1 15.39159,15.391584 z" />
      <path
         d="m -247.94556,34.47094 a 30.783751,30.783751 0 0 0 -30.78351,30.78351 30.783751,30.783751 0 0 0 30.78351,30.78394 30.783751,30.783751 0 0 0 30.78394,-30.78394 30.783751,30.783751 0 0 0 -30.78394,-30.78351 z m 0,12.2504 a 18.533272,18.533272 0 0 1 18.53354,18.53311 18.533272,18.533272 0 0 1 -18.53354,18.53353 18.533272,18.533272 0 0 1 -18.5331,-18.53353 18.533272,18.533272 0 0 1 18.5331,-18.53311 z m 15.39181,18.53332 a 15.391585,15.391585 0 0 1 -15.39159,15.39159 15.391585,15.391585 0 0 1 -15.39158,-15.39159 15.391585,15.391585 0 0 1 15.39158,-15.39158 15.391585,15.391585 0 0 1 15.39159,15.39158 z"
         style="opacity:1;fill:#0e232e;fill-opacity:1;stroke:none;stroke-width:0.70210028;stroke-miterlimit:4;stroke-dasharray:none;stroke-opacity:1"
         id="path922"
         inkscape:connector-curvature="0" />
      <path
         transform="translate(-92.135909,-101.60783)"
         sodipodi:type="inkscape:offset"
         inkscape:radius="4.8236122"
         inkscape:original="M -92.304688 21.634766 C -99.043478 21.257341 -105.9975 22.709976 -112.4707 26.160156 C -117.34303 28.757086 -125.76329 37.126158 -128.11133 41.705078 C -130.09576 45.574898 -131.96315 47.162921 -140.13086 51.931641 C -147.03718 55.963901 -147.20681 56.017738 -151.0918 55.367188 C -153.26222 55.003758 -157.2934 54.917158 -160.04883 55.173828 C -165.65626 55.696178 -165.89952 55.607337 -176.46289 49.273438 C -181.41681 46.303018 -183.30135 44.657434 -185.26367 41.589844 C -188.67732 36.253444 -197.18851 28.46351 -202.02344 26.25 C -217.0733 19.35995 -233.03148 22.251361 -244.91602 34.019531 C -252.80376 41.830031 -256.28563 50.296704 -256.24023 61.552734 C -256.15949 81.587484 -238.79047 98.59375 -218.41016 98.59375 C -214.30697 98.59375 -212.83324 99.033424 -207.18945 101.9375 C -198.37727 106.47192 -195.80311 108.58713 -193.49219 113.19336 C -192.41002 115.35039 -190.37321 118.73114 -188.9668 120.70703 L -186.41016 124.30078 L -186.41016 134.00586 C -186.41016 143.37734 -186.48898 143.84978 -188.67969 147.79883 C -196.26158 161.46617 -195.83269 176.07417 -187.48047 188.64648 C -182.93914 195.48237 -177.41069 199.94884 -169.22266 203.40039 C -165.24538 205.07695 -164.03545 205.21578 -155.32812 204.99609 C -146.00316 204.76083 -145.65723 204.69193 -139.91016 201.85156 C -129.39982 196.65708 -121.3907 186.56878 -119.02734 175.54883 C -118.56353 173.38624 -118.34919 168.46931 -118.55078 164.61523 C -118.87836 158.35236 -119.2497 156.9195 -122.04883 151.08594 L -125.17773 144.5625 L -125.17773 133.55078 C -125.17773 122.76111 -125.1356 122.46841 -123.02539 119.07031 C -121.84091 117.16293 -119.96023 113.99777 -118.84766 112.03516 C -117.28217 109.27365 -115.63841 107.77368 -111.57812 105.40234 C -102.31067 99.989868 -99.220599 98.734436 -93.074219 97.884766 C -81.018959 96.218246 -74.167449 93.14299 -67.636719 86.46875 C -54.563999 73.108789 -52.946325 53.632847 -63.609375 37.992188 C -70.438137 27.975675 -81.07337 22.263807 -92.304688 21.634766 z "
         style="opacity:1;fill:none;fill-opacity:1;stroke:#0e232e;stroke-width:3;stroke-miterlimit:4;stroke-dasharray:none;stroke-opacity:1"
         id="path924"
         d="m -92.035156,16.818359 c -7.613725,-0.426428 -15.462404,1.225635 -22.705074,5.085938 -3.31637,1.767606 -6.67667,4.661182 -9.89844,7.863281 -3.22177,3.202099 -6.06782,6.425426 -7.76563,9.736328 -0.83413,1.626643 -1.23383,2.20558 -2.52343,3.302735 -1.28961,1.097154 -3.61402,2.611469 -7.63477,4.958984 -3.44638,2.012173 -5.17137,2.894898 -5.625,3.037109 -0.45363,0.142212 -0.19758,0.126448 -2.10742,-0.193359 -3.0068,-0.503479 -6.91338,-0.544541 -10.20117,-0.238281 -2.77216,0.258235 -3.00367,0.339913 -4.26953,-0.115235 -1.26587,-0.455148 -3.94059,-1.955474 -9.2168,-5.11914 -4.74279,-2.843823 -5.5899,-3.60018 -7.21875,-6.146485 -4.22662,-6.607279 -12.03302,-14.022299 -18.81445,-17.126953 -16.68772,-7.639882 -35.15703,-4.280742 -48.29493,8.728516 -8.62186,8.537438 -12.80335,18.71997 -12.7539,30.980469 0.0919,22.811551 19.59062,41.845704 42.65429,41.845704 3.75861,0 3.49753,-0.0298 9.01368,2.80859 4.30466,2.21502 6.89118,3.77319 8.43164,5.03906 1.54045,1.26588 2.19585,2.16386 3.16211,4.08985 1.26413,2.51974 3.26834,5.84732 4.90625,8.14844 l 1.6621,2.33789 v 8.16406 c 0,4.67222 -0.0644,7.03104 -0.24804,8.14648 -0.18363,1.11545 -0.34834,1.38201 -1.41602,3.30664 -8.3266,15.00979 -7.86268,31.91403 1.40039,45.85743 5.00389,7.53216 11.55793,12.80105 20.40235,16.52929 2.10605,0.88778 4.09878,1.58018 6.49609,1.85547 2.39731,0.2753 5.00767,0.22782 9.39258,0.11719 9.34569,-0.23578 11.64537,-0.78187 17.43359,-3.64258 11.86166,-5.86234 20.75757,-17.00075 23.46289,-29.61523 0.71428,-3.33045 0.79826,-7.95137 0.57617,-12.19727 -0.3355,-6.41443 -1.10442,-9.40198 -3.96484,-15.36328 l -2.6543,-5.53516 v -9.91406 c 0,-5.38856 0.0585,-8.13193 0.23243,-9.30273 0.17391,-1.1708 0.16341,-0.97427 1.19336,-2.63282 1.23896,-1.99511 3.10998,-5.14535 4.27539,-7.20117 1.22065,-2.15322 1.72288,-2.63518 5.50781,-4.8457 9.144729,-5.3408 11.005297,-6.11481 16.730468,-6.90625 12.607039,-1.7428 21.032423,-5.470082 28.224609,-12.820313 C -49.616939,74.949088 -47.78227,52.64355 -59.623047,35.275391 -67.28408,24.038092 -79.345834,17.52906 -92.035156,16.818359 Z" />
    </g>
    <g
       id="g1011"
       transform="matrix(0.54645862,0,0,0.54645862,51.336884,78.696199)">
      <path
         sodipodi:nodetypes="cssscsssssscssccscsscssccsccscccc"
         inkscape:connector-curvature="0"
         id="path935"
         d="m -206.24949,-111.75574 c -8.18803,-3.45155 -13.71581,-7.91891 -18.25714,-14.7548 -8.35222,-12.57231 -8.78105,-27.17933 -1.19916,-40.84667 2.19071,-3.94905 2.26864,-4.4229 2.26864,-13.79438 v -9.70486 l -2.55711,-3.59252 c -1.40641,-1.97589 -3.44252,-5.35737 -4.52469,-7.5144 -2.31092,-4.60623 -4.88445,-6.72108 -13.69663,-11.2555 -5.64379,-2.90407 -7.11843,-3.34344 -11.22162,-3.34344 -20.38031,0 -37.74911,-17.00693 -37.82985,-37.04168 -0.0454,-11.25603 3.43728,-19.72308 11.32502,-27.53358 11.88454,-11.76817 27.84258,-14.65834 42.89244,-7.76829 4.83493,2.21351 13.34474,10.00251 16.75839,15.33891 1.96232,3.06759 3.8483,4.71409 8.80222,7.68451 10.56337,6.3339 10.80655,6.4213 16.41398,5.89895 2.75543,-0.25667 6.78566,-0.16932 8.95608,0.19411 3.88499,0.65055 4.05498,0.59728 10.9613,-3.43498 8.16771,-4.76872 10.03567,-6.35817 12.0201,-10.22799 2.34804,-4.57892 10.7683,-12.94722 15.64063,-15.54415 17.26186,-9.20048 37.9354,-4.19421 48.86142,11.83221 10.663051,15.64066 9.044781,35.11673 -4.02794,48.4767 -6.53073,6.67424 -13.38196,9.74883 -25.43722,11.41535 -6.14638,0.84967 -9.23732,2.10542 -18.50478,7.51789 -4.06029,2.37134 -5.70404,3.87107 -7.26953,6.63258 -1.11257,1.96261 -2.99199,5.12896 -4.17647,7.03634 -2.11021,3.3981 -2.1536,3.68981 -2.1536,14.47948 v 11.01152 l 3.13052,6.52415 c 2.79913,5.83356 3.16928,7.26556 3.49686,13.52843 0.20159,3.85408 -0.0127,8.77195 -0.47651,10.93454 -2.36336,11.01995 -10.37206,21.10695 -20.8824,26.30143 -5.74707,2.84037 -6.0924,2.91084 -15.41736,3.1461 -8.70732,0.21969 -9.91831,0.0806 -13.89559,-1.59596 z"
         style="opacity:1;fill:#2d2d2d;fill-opacity:1;stroke:#9ade00;stroke-width:3;stroke-miterlimit:4;stroke-dasharray:none;stroke-opacity:1" />
      <path
         style="opacity:1;fill:#ffffff;fill-opacity:1;stroke:#ffffff;stroke-width:3;stroke-miterlimit:4;stroke-dasharray:none;stroke-opacity:1"
         d="m -206.24949,-111.75574 c -8.18803,-3.45155 -13.71581,-7.91891 -18.25714,-14.7548 -8.35222,-12.57231 -8.78105,-27.17933 -1.19916,-40.84667 2.19071,-3.94905 2.26864,-4.4229 2.26864,-13.79438 v -9.70486 l -2.55711,-3.59252 c -1.40641,-1.97589 -3.44252,-5.35737 -4.52469,-7.5144 -2.31092,-4.60623 -4.88445,-6.72108 -13.69663,-11.2555 -5.64379,-2.90407 -7.11843,-3.34344 -11.22162,-3.34344 -20.38031,0 -37.74911,-17.00693 -37.82985,-37.04168 -0.0454,-11.25603 3.43728,-19.72308 11.32502,-27.53358 11.88454,-11.76817 27.84258,-14.65834 42.89244,-7.76829 4.83493,2.21351 13.34474,10.00251 16.75839,15.33891 1.96232,3.06759 3.8483,4.71409 8.80222,7.68451 10.56337,6.3339 10.80655,6.4213 16.41398,5.89895 2.75543,-0.25667 6.78566,-0.16932 8.95608,0.19411 3.88499,0.65055 4.05498,0.59728 10.9613,-3.43498 8.16771,-4.76872 10.03567,-6.35817 12.0201,-10.22799 2.34804,-4.57892 10.7683,-12.94722 15.64063,-15.54415 17.26186,-9.20048 37.9354,-4.19421 48.86142,11.83221 10.663051,15.64066 9.044781,35.11673 -4.02794,48.4767 -6.53073,6.67424 -13.38196,9.74883 -25.43722,11.41535 -6.14638,0.84967 -9.23732,2.10542 -18.50478,7.51789 -4.06029,2.37134 -5.70404,3.87107 -7.26953,6.63258 -1.11257,1.96261 -2.99199,5.12896 -4.17647,7.03634 -2.11021,3.3981 -2.1536,3.68981 -2.1536,14.47948 v 11.01152 l 3.13052,6.52415 c 2.79913,5.83356 3.16928,7.26556 3.49686,13.52843 0.20159,3.85408 -0.0127,8.77195 -0.47651,10.93454 -2.36336,11.01995 -10.37206,21.10695 -20.8824,26.30143 -5.74707,2.84037 -6.0924,2.91084 -15.41736,3.1461 -8.70732,0.21969 -9.91831,0.0806 -13.89559,-1.59596 z"
         id="path937"
         inkscape:connector-curvature="0"
         sodipodi:nodetypes="cssscsssssscssccscsscssccsccscccc" />
      <path
         d="m -192.83623,-250.11709 a 30.783751,30.783751 0 0 0 -30.78351,30.78351 30.783751,30.783751 0 0 0 30.78351,30.78394 30.783751,30.783751 0 0 0 30.78394,-30.78394 30.783751,30.783751 0 0 0 -30.78394,-30.78351 z m 0,12.25039 a 18.533272,18.533272 0 0 1 18.53354,18.53312 18.533272,18.533272 0 0 1 -18.53354,18.53353 18.533272,18.533272 0 0 1 -18.5331,-18.53353 18.533272,18.533272 0 0 1 18.5331,-18.53312 z m 15.39181,18.53333 a 15.391585,15.391585 0 0 1 -15.39159,15.39159 15.391585,15.391585 0 0 1 -15.39158,-15.39159 15.391585,15.391585 0 0 1 15.39158,-15.39158 15.391585,15.391585 0 0 1 15.39159,15.39158 z"
         style="opacity:1;fill:#0e232e;fill-opacity:1;stroke:none;stroke-width:0.70210028;stroke-miterlimit:4;stroke-dasharray:none;stroke-opacity:1"
         id="path939"
         inkscape:connector-curvature="0" />
      <path
         inkscape:connector-curvature="0"
         id="path941"
         style="opacity:1;fill:#0e232e;fill-opacity:1;stroke:none;stroke-width:0.70210028;stroke-miterlimit:4;stroke-dasharray:none;stroke-opacity:1"
         d="m -254.83423,-285.85205 a 30.783751,30.783751 0 0 0 -30.78351,30.78351 30.783751,30.783751 0 0 0 30.78351,30.78394 30.783751,30.783751 0 0 0 30.78394,-30.78394 30.783751,30.783751 0 0 0 -30.78394,-30.78351 z m 0,12.2504 a 18.533272,18.533272 0 0 1 18.53354,18.53311 18.533272,18.533272 0 0 1 -18.53354,18.53353 18.533272,18.533272 0 0 1 -18.5331,-18.53353 18.533272,18.533272 0 0 1 18.5331,-18.53311 z m 15.39181,18.53332 a 15.391585,15.391585 0 0 1 -15.39159,15.39159 15.391585,15.391585 0 0 1 -15.39158,-15.39159 15.391585,15.391585 0 0 1 15.39158,-15.39158 15.391585,15.391585 0 0 1 15.39159,15.39158 z" />
      <path
         d="m -130.83823,-287.14368 a 30.783751,30.783751 0 0 0 -30.78351,30.78352 30.783751,30.783751 0 0 0 30.78351,30.78394 30.783751,30.783751 0 0 0 30.78394,-30.78394 30.783751,30.783751 0 0 0 -30.78394,-30.78352 z m 0,12.2504 a 18.533272,18.533272 0 0 1 18.53354,18.53312 18.533272,18.533272 0 0 1 -18.53354,18.53353 18.533272,18.533272 0 0 1 -18.5331,-18.53353 18.533272,18.533272 0 0 1 18.5331,-18.53312 z m 15.39181,18.53333 a 15.391585,15.391585 0 0 1 -15.39159,15.39159 15.391585,15.391585 0 0 1 -15.39158,-15.39159 15.391585,15.391585 0 0 1 15.39158,-15.39158 15.391585,15.391585 0 0 1 15.39159,15.39158 z"
         style="opacity:1;fill:#0e232e;fill-opacity:1;stroke:none;stroke-width:0.70210028;stroke-miterlimit:4;stroke-dasharray:none;stroke-opacity:1"
         id="path943"
         inkscape:connector-curvature="0" />
      <path
         inkscape:connector-curvature="0"
         id="path945"
         style="opacity:1;fill:#0e232e;fill-opacity:1;stroke:none;stroke-width:0.70210028;stroke-miterlimit:4;stroke-dasharray:none;stroke-opacity:1"
         d="m -192.83623,-179.07772 a 30.783751,30.783751 0 0 0 -30.78351,30.78351 30.783751,30.783751 0 0 0 30.78351,30.78394 30.783751,30.783751 0 0 0 30.78394,-30.78394 30.783751,30.783751 0 0 0 -30.78394,-30.78351 z m 0,12.2504 a 18.533272,18.533272 0 0 1 18.53354,18.53311 18.533272,18.533272 0 0 1 -18.53354,18.53353 18.533272,18.533272 0 0 1 -18.5331,-18.53353 18.533272,18.533272 0 0 1 18.5331,-18.53311 z m 15.39181,18.53332 a 15.391585,15.391585 0 0 1 -15.39159,15.39159 15.391585,15.391585 0 0 1 -15.39158,-15.39159 15.391585,15.391585 0 0 1 15.39158,-15.39158 15.391585,15.391585 0 0 1 15.39159,15.39158 z" />
      <path
         d="m -92.035156,16.818359 c -7.613725,-0.426428 -15.462404,1.225635 -22.705074,5.085938 -3.31637,1.767606 -6.67667,4.661182 -9.89844,7.863281 -3.22177,3.202099 -6.06782,6.425426 -7.76563,9.736328 -0.83413,1.626643 -1.23383,2.20558 -2.52343,3.302735 -1.28961,1.097154 -3.61402,2.611469 -7.63477,4.958984 -3.44638,2.012173 -5.17137,2.894898 -5.625,3.037109 -0.45363,0.142212 -0.19758,0.126448 -2.10742,-0.193359 -3.0068,-0.503479 -6.91338,-0.544541 -10.20117,-0.238281 -2.77216,0.258235 -3.00367,0.339913 -4.26953,-0.115235 -1.26587,-0.455148 -3.94059,-1.955474 -9.2168,-5.11914 -4.74279,-2.843823 -5.5899,-3.60018 -7.21875,-6.146485 -4.22662,-6.607279 -12.03302,-14.022299 -18.81445,-17.126953 -16.68772,-7.639882 -35.15703,-4.280742 -48.29493,8.728516 -8.62186,8.537438 -12.80335,18.71997 -12.7539,30.980469 0.0919,22.811551 19.59062,41.845704 42.65429,41.845704 3.75861,0 3.49753,-0.0298 9.01368,2.80859 4.30466,2.21502 6.89118,3.77319 8.43164,5.03906 1.54045,1.26588 2.19585,2.16386 3.16211,4.08985 1.26413,2.51974 3.26834,5.84732 4.90625,8.14844 l 1.6621,2.33789 v 8.16406 c 0,4.67222 -0.0644,7.03104 -0.24804,8.14648 -0.18363,1.11545 -0.34834,1.38201 -1.41602,3.30664 -8.3266,15.00979 -7.86268,31.91403 1.40039,45.85743 5.00389,7.53216 11.55793,12.80105 20.40235,16.52929 2.10605,0.88778 4.09878,1.58018 6.49609,1.85547 2.39731,0.2753 5.00767,0.22782 9.39258,0.11719 9.34569,-0.23578 11.64537,-0.78187 17.43359,-3.64258 11.86166,-5.86234 20.75757,-17.00075 23.46289,-29.61523 0.71428,-3.33045 0.79826,-7.95137 0.57617,-12.19727 -0.3355,-6.41443 -1.10442,-9.40198 -3.96484,-15.36328 l -2.6543,-5.53516 v -9.91406 c 0,-5.38856 0.0585,-8.13193 0.23243,-9.30273 0.17391,-1.1708 0.16341,-0.97427 1.19336,-2.63282 1.23896,-1.99511 3.10998,-5.14535 4.27539,-7.20117 1.22065,-2.15322 1.72288,-2.63518 5.50781,-4.8457 9.144729,-5.3408 11.005297,-6.11481 16.730468,-6.90625 12.607039,-1.7428 21.032423,-5.470082 28.224609,-12.820313 C -49.616939,74.949088 -47.78227,52.64355 -59.623047,35.275391 -67.28408,24.038092 -79.345834,17.52906 -92.035156,16.818359 Z"
         id="path947"
         style="opacity:1;fill:none;fill-opacity:1;stroke:#0e232e;stroke-width:3;stroke-miterlimit:4;stroke-dasharray:none;stroke-opacity:1"
         inkscape:original="M -92.304688 21.634766 C -99.043478 21.257341 -105.9975 22.709976 -112.4707 26.160156 C -117.34303 28.757086 -125.76329 37.126158 -128.11133 41.705078 C -130.09576 45.574898 -131.96315 47.162921 -140.13086 51.931641 C -147.03718 55.963901 -147.20681 56.017738 -151.0918 55.367188 C -153.26222 55.003758 -157.2934 54.917158 -160.04883 55.173828 C -165.65626 55.696178 -165.89952 55.607337 -176.46289 49.273438 C -181.41681 46.303018 -183.30135 44.657434 -185.26367 41.589844 C -188.67732 36.253444 -197.18851 28.46351 -202.02344 26.25 C -217.0733 19.35995 -233.03148 22.251361 -244.91602 34.019531 C -252.80376 41.830031 -256.28563 50.296704 -256.24023 61.552734 C -256.15949 81.587484 -238.79047 98.59375 -218.41016 98.59375 C -214.30697 98.59375 -212.83324 99.033424 -207.18945 101.9375 C -198.37727 106.47192 -195.80311 108.58713 -193.49219 113.19336 C -192.41002 115.35039 -190.37321 118.73114 -188.9668 120.70703 L -186.41016 124.30078 L -186.41016 134.00586 C -186.41016 143.37734 -186.48898 143.84978 -188.67969 147.79883 C -196.26158 161.46617 -195.83269 176.07417 -187.48047 188.64648 C -182.93914 195.48237 -177.41069 199.94884 -169.22266 203.40039 C -165.24538 205.07695 -164.03545 205.21578 -155.32812 204.99609 C -146.00316 204.76083 -145.65723 204.69193 -139.91016 201.85156 C -129.39982 196.65708 -121.3907 186.56878 -119.02734 175.54883 C -118.56353 173.38624 -118.34919 168.46931 -118.55078 164.61523 C -118.87836 158.35236 -119.2497 156.9195 -122.04883 151.08594 L -125.17773 144.5625 L -125.17773 133.55078 C -125.17773 122.76111 -125.1356 122.46841 -123.02539 119.07031 C -121.84091 117.16293 -119.96023 113.99777 -118.84766 112.03516 C -117.28217 109.27365 -115.63841 107.77368 -111.57812 105.40234 C -102.31067 99.989868 -99.220599 98.734436 -93.074219 97.884766 C -81.018959 96.218246 -74.167449 93.14299 -67.636719 86.46875 C -54.563999 73.108789 -52.946325 53.632847 -63.609375 37.992188 C -70.438137 27.975675 -81.07337 22.263807 -92.304688 21.634766 z "
         inkscape:radius="4.8236122"
         sodipodi:type="inkscape:offset"
         transform="translate(-37.026578,-315.15649)" />
    </g>
    <g
       id="g993"
       transform="matrix(0.54645862,0,0,0.54645862,85.940444,53.605566)">
      <path
         style="opacity:1;fill:#2d2d2d;fill-opacity:1;stroke:#9ade00;stroke-width:3;stroke-miterlimit:4;stroke-dasharray:none;stroke-opacity:1"
         d="m -487.82373,147.43033 c -8.18803,-3.45155 -13.71581,-7.91891 -18.25714,-14.7548 -8.35222,-12.57231 -8.78105,-27.17933 -1.19916,-40.846667 2.19071,-3.94905 2.26864,-4.4229 2.26864,-13.79438 v -9.70486 l -2.55711,-3.59252 c -1.40641,-1.97589 -3.44252,-5.35737 -4.52469,-7.5144 -2.31092,-4.60623 -4.88445,-6.72108 -13.69663,-11.2555 -5.64379,-2.90407 -7.11843,-3.34344 -11.22162,-3.34344 -20.38031,0 -37.74911,-17.00693 -37.82985,-37.0416799 -0.0454,-11.25603 3.43728,-19.7230801 11.32502,-27.5335801 11.88454,-11.76817 27.84258,-14.65834 42.89244,-7.76829 4.83493,2.21351 13.34474,10.00251 16.75839,15.33891 1.96232,3.06759 3.8483,4.7140901 8.80222,7.6845101 10.56337,6.33390001 10.80655,6.42130001 16.41398,5.89895001 2.75543,-0.25667001 6.78566,-0.16932 8.95608,0.19411 3.88499,0.65055 4.05498,0.59728 10.9613,-3.43498001 8.16771,-4.76872 10.03567,-6.3581701 12.0201,-10.2279901 2.34804,-4.57892 10.7683,-12.94722 15.64063,-15.54415 17.26186,-9.20048 37.9354,-4.19421 48.86142,11.83221 10.66305,15.6406601 9.04478,35.11673 -4.02794,48.4767 -6.53073,6.67424 -13.38196,9.74883 -25.43722,11.41535 -6.14638,0.84967 -9.23732,2.10542 -18.50478,7.51789 -4.06029,2.37134 -5.70404,3.87107 -7.26953,6.63258 -1.11257,1.96261 -2.99199,5.12896 -4.17647,7.03634 -2.11021,3.3981 -2.1536,3.68981 -2.1536,14.47948 v 11.01152 l 3.13052,6.52415 c 2.79913,5.833557 3.16928,7.265557 3.49686,13.528427 0.20159,3.85408 -0.0127,8.77195 -0.47651,10.93454 -2.36336,11.01995 -10.37206,21.10695 -20.8824,26.30143 -5.74707,2.84037 -6.0924,2.91084 -15.41736,3.1461 -8.70732,0.21969 -9.91831,0.0806 -13.89559,-1.59596 z"
         id="path949"
         inkscape:connector-curvature="0"
         sodipodi:nodetypes="cssscsssssscssccscsscssccsccscccc" />
      <path
         sodipodi:nodetypes="cssscsssssscssccscsscssccsccscccc"
         inkscape:connector-curvature="0"
         id="path951"
         d="m -487.82373,147.43033 c -8.18803,-3.45155 -13.71581,-7.91891 -18.25714,-14.7548 -8.35222,-12.57231 -8.78105,-27.17933 -1.19916,-40.846667 2.19071,-3.94905 2.26864,-4.4229 2.26864,-13.79438 v -9.70486 l -2.55711,-3.59252 c -1.40641,-1.97589 -3.44252,-5.35737 -4.52469,-7.5144 -2.31092,-4.60623 -4.88445,-6.72108 -13.69663,-11.2555 -5.64379,-2.90407 -7.11843,-3.34344 -11.22162,-3.34344 -20.38031,0 -37.74911,-17.00693 -37.82985,-37.0416799 -0.0454,-11.25603 3.43728,-19.7230801 11.32502,-27.5335801 11.88454,-11.76817 27.84258,-14.65834 42.89244,-7.76829 4.83493,2.21351 13.34474,10.00251 16.75839,15.33891 1.96232,3.06759 3.8483,4.7140901 8.80222,7.6845101 10.56337,6.33390001 10.80655,6.42130001 16.41398,5.89895001 2.75543,-0.25667001 6.78566,-0.16932 8.95608,0.19411 3.88499,0.65055 4.05498,0.59728 10.9613,-3.43498001 8.16771,-4.76872 10.03567,-6.3581701 12.0201,-10.2279901 2.34804,-4.57892 10.7683,-12.94722 15.64063,-15.54415 17.26186,-9.20048 37.9354,-4.19421 48.86142,11.83221 10.66305,15.6406601 9.04478,35.11673 -4.02794,48.4767 -6.53073,6.67424 -13.38196,9.74883 -25.43722,11.41535 -6.14638,0.84967 -9.23732,2.10542 -18.50478,7.51789 -4.06029,2.37134 -5.70404,3.87107 -7.26953,6.63258 -1.11257,1.96261 -2.99199,5.12896 -4.17647,7.03634 -2.11021,3.3981 -2.1536,3.68981 -2.1536,14.47948 v 11.01152 l 3.13052,6.52415 c 2.79913,5.833557 3.16928,7.265557 3.49686,13.528427 0.20159,3.85408 -0.0127,8.77195 -0.47651,10.93454 -2.36336,11.01995 -10.37206,21.10695 -20.8824,26.30143 -5.74707,2.84037 -6.0924,2.91084 -15.41736,3.1461 -8.70732,0.21969 -9.91831,0.0806 -13.89559,-1.59596 z"
         style="opacity:1;fill:#fe3038;fill-opacity:1;stroke:#fe3038;stroke-width:3;stroke-miterlimit:4;stroke-dasharray:none;stroke-opacity:1" />
      <path
         inkscape:connector-curvature="0"
         id="path953"
         style="opacity:1;fill:#0e232e;fill-opacity:1;stroke:none;stroke-width:0.70210028;stroke-miterlimit:4;stroke-dasharray:none;stroke-opacity:1"
         d="m -474.41047,9.0689831 a 30.783751,30.783751 0 0 0 -30.78351,30.7835099 30.783751,30.783751 0 0 0 30.78351,30.78394 30.783751,30.783751 0 0 0 30.78394,-30.78394 30.783751,30.783751 0 0 0 -30.78394,-30.7835099 z m 0,12.2503899 a 18.533272,18.533272 0 0 1 18.53354,18.53312 18.533272,18.533272 0 0 1 -18.53354,18.53353 18.533272,18.533272 0 0 1 -18.5331,-18.53353 18.533272,18.533272 0 0 1 18.5331,-18.53312 z m 15.39181,18.53333 a 15.391585,15.391585 0 0 1 -15.39159,15.39159 15.391585,15.391585 0 0 1 -15.39158,-15.39159 15.391585,15.391585 0 0 1 15.39158,-15.39158 15.391585,15.391585 0 0 1 15.39159,15.39158 z" />
      <path
         d="m -536.40847,-26.665977 a 30.783751,30.783751 0 0 0 -30.78351,30.7835101 30.783751,30.783751 0 0 0 30.78351,30.7839399 30.783751,30.783751 0 0 0 30.78394,-30.7839399 30.783751,30.783751 0 0 0 -30.78394,-30.7835101 z m 0,12.2504 a 18.533272,18.533272 0 0 1 18.53354,18.5331101 18.533272,18.533272 0 0 1 -18.53354,18.5335299 18.533272,18.533272 0 0 1 -18.5331,-18.5335299 18.533272,18.533272 0 0 1 18.5331,-18.5331101 z m 15.39181,18.5333201 a 15.391585,15.391585 0 0 1 -15.39159,15.3915899 15.391585,15.391585 0 0 1 -15.39158,-15.3915899 15.391585,15.391585 0 0 1 15.39158,-15.3915801 15.391585,15.391585 0 0 1 15.39159,15.3915801 z"
         style="opacity:1;fill:#0e232e;fill-opacity:1;stroke:none;stroke-width:0.70210028;stroke-miterlimit:4;stroke-dasharray:none;stroke-opacity:1"
         id="path955"
         inkscape:connector-curvature="0" />
      <path
         inkscape:connector-curvature="0"
         id="path957"
         style="opacity:1;fill:#0e232e;fill-opacity:1;stroke:none;stroke-width:0.70210028;stroke-miterlimit:4;stroke-dasharray:none;stroke-opacity:1"
         d="m -412.41247,-27.957607 a 30.783751,30.783751 0 0 0 -30.78351,30.7835201 30.783751,30.783751 0 0 0 30.78351,30.7839399 30.783751,30.783751 0 0 0 30.78394,-30.7839399 30.783751,30.783751 0 0 0 -30.78394,-30.7835201 z m 0,12.2504 a 18.533272,18.533272 0 0 1 18.53354,18.5331201 18.533272,18.533272 0 0 1 -18.53354,18.5335299 18.533272,18.533272 0 0 1 -18.5331,-18.5335299 18.533272,18.533272 0 0 1 18.5331,-18.5331201 z m 15.39181,18.5333301 a 15.391585,15.391585 0 0 1 -15.39159,15.3915899 15.391585,15.391585 0 0 1 -15.39158,-15.3915899 15.391585,15.391585 0 0 1 15.39158,-15.3915801 15.391585,15.391585 0 0 1 15.39159,15.3915801 z" />
      <path
         d="m -474.41047,80.108353 a 30.783751,30.783751 0 0 0 -30.78351,30.783507 30.783751,30.783751 0 0 0 30.78351,30.78394 30.783751,30.783751 0 0 0 30.78394,-30.78394 30.783751,30.783751 0 0 0 -30.78394,-30.783507 z m 0,12.2504 a 18.533272,18.533272 0 0 1 18.53354,18.533107 18.533272,18.533272 0 0 1 -18.53354,18.53353 18.533272,18.533272 0 0 1 -18.5331,-18.53353 18.533272,18.533272 0 0 1 18.5331,-18.533107 z m 15.39181,18.533317 a 15.391585,15.391585 0 0 1 -15.39159,15.39159 15.391585,15.391585 0 0 1 -15.39158,-15.39159 15.391585,15.391585 0 0 1 15.39158,-15.391577 15.391585,15.391585 0 0 1 15.39159,15.391577 z"
         style="opacity:1;fill:#0e232e;fill-opacity:1;stroke:none;stroke-width:0.70210028;stroke-miterlimit:4;stroke-dasharray:none;stroke-opacity:1"
         id="path959"
         inkscape:connector-curvature="0" />
      <path
         transform="translate(-318.60082,-55.970417)"
         sodipodi:type="inkscape:offset"
         inkscape:radius="4.8236122"
         inkscape:original="M -92.304688 21.634766 C -99.043478 21.257341 -105.9975 22.709976 -112.4707 26.160156 C -117.34303 28.757086 -125.76329 37.126158 -128.11133 41.705078 C -130.09576 45.574898 -131.96315 47.162921 -140.13086 51.931641 C -147.03718 55.963901 -147.20681 56.017738 -151.0918 55.367188 C -153.26222 55.003758 -157.2934 54.917158 -160.04883 55.173828 C -165.65626 55.696178 -165.89952 55.607337 -176.46289 49.273438 C -181.41681 46.303018 -183.30135 44.657434 -185.26367 41.589844 C -188.67732 36.253444 -197.18851 28.46351 -202.02344 26.25 C -217.0733 19.35995 -233.03148 22.251361 -244.91602 34.019531 C -252.80376 41.830031 -256.28563 50.296704 -256.24023 61.552734 C -256.15949 81.587484 -238.79047 98.59375 -218.41016 98.59375 C -214.30697 98.59375 -212.83324 99.033424 -207.18945 101.9375 C -198.37727 106.47192 -195.80311 108.58713 -193.49219 113.19336 C -192.41002 115.35039 -190.37321 118.73114 -188.9668 120.70703 L -186.41016 124.30078 L -186.41016 134.00586 C -186.41016 143.37734 -186.48898 143.84978 -188.67969 147.79883 C -196.26158 161.46617 -195.83269 176.07417 -187.48047 188.64648 C -182.93914 195.48237 -177.41069 199.94884 -169.22266 203.40039 C -165.24538 205.07695 -164.03545 205.21578 -155.32812 204.99609 C -146.00316 204.76083 -145.65723 204.69193 -139.91016 201.85156 C -129.39982 196.65708 -121.3907 186.56878 -119.02734 175.54883 C -118.56353 173.38624 -118.34919 168.46931 -118.55078 164.61523 C -118.87836 158.35236 -119.2497 156.9195 -122.04883 151.08594 L -125.17773 144.5625 L -125.17773 133.55078 C -125.17773 122.76111 -125.1356 122.46841 -123.02539 119.07031 C -121.84091 117.16293 -119.96023 113.99777 -118.84766 112.03516 C -117.28217 109.27365 -115.63841 107.77368 -111.57812 105.40234 C -102.31067 99.989868 -99.220599 98.734436 -93.074219 97.884766 C -81.018959 96.218246 -74.167449 93.14299 -67.636719 86.46875 C -54.563999 73.108789 -52.946325 53.632847 -63.609375 37.992188 C -70.438137 27.975675 -81.07337 22.263807 -92.304688 21.634766 z "
         style="opacity:1;fill:none;fill-opacity:1;stroke:#0e232e;stroke-width:3;stroke-miterlimit:4;stroke-dasharray:none;stroke-opacity:1"
         id="path961"
         d="m -92.035156,16.818359 c -7.613725,-0.426428 -15.462404,1.225635 -22.705074,5.085938 -3.31637,1.767606 -6.67667,4.661182 -9.89844,7.863281 -3.22177,3.202099 -6.06782,6.425426 -7.76563,9.736328 -0.83413,1.626643 -1.23383,2.20558 -2.52343,3.302735 -1.28961,1.097154 -3.61402,2.611469 -7.63477,4.958984 -3.44638,2.012173 -5.17137,2.894898 -5.625,3.037109 -0.45363,0.142212 -0.19758,0.126448 -2.10742,-0.193359 -3.0068,-0.503479 -6.91338,-0.544541 -10.20117,-0.238281 -2.77216,0.258235 -3.00367,0.339913 -4.26953,-0.115235 -1.26587,-0.455148 -3.94059,-1.955474 -9.2168,-5.11914 -4.74279,-2.843823 -5.5899,-3.60018 -7.21875,-6.146485 -4.22662,-6.607279 -12.03302,-14.022299 -18.81445,-17.126953 -16.68772,-7.639882 -35.15703,-4.280742 -48.29493,8.728516 -8.62186,8.537438 -12.80335,18.71997 -12.7539,30.980469 0.0919,22.811551 19.59062,41.845704 42.65429,41.845704 3.75861,0 3.49753,-0.0298 9.01368,2.80859 4.30466,2.21502 6.89118,3.77319 8.43164,5.03906 1.54045,1.26588 2.19585,2.16386 3.16211,4.08985 1.26413,2.51974 3.26834,5.84732 4.90625,8.14844 l 1.6621,2.33789 v 8.16406 c 0,4.67222 -0.0644,7.03104 -0.24804,8.14648 -0.18363,1.11545 -0.34834,1.38201 -1.41602,3.30664 -8.3266,15.00979 -7.86268,31.91403 1.40039,45.85743 5.00389,7.53216 11.55793,12.80105 20.40235,16.52929 2.10605,0.88778 4.09878,1.58018 6.49609,1.85547 2.39731,0.2753 5.00767,0.22782 9.39258,0.11719 9.34569,-0.23578 11.64537,-0.78187 17.43359,-3.64258 11.86166,-5.86234 20.75757,-17.00075 23.46289,-29.61523 0.71428,-3.33045 0.79826,-7.95137 0.57617,-12.19727 -0.3355,-6.41443 -1.10442,-9.40198 -3.96484,-15.36328 l -2.6543,-5.53516 v -9.91406 c 0,-5.38856 0.0585,-8.13193 0.23243,-9.30273 0.17391,-1.1708 0.16341,-0.97427 1.19336,-2.63282 1.23896,-1.99511 3.10998,-5.14535 4.27539,-7.20117 1.22065,-2.15322 1.72288,-2.63518 5.50781,-4.8457 9.144729,-5.3408 11.005297,-6.11481 16.730468,-6.90625 12.607039,-1.7428 21.032423,-5.470082 28.224609,-12.820313 C -49.616939,74.949088 -47.78227,52.64355 -59.623047,35.275391 -67.28408,24.038092 -79.345834,17.52906 -92.035156,16.818359 Z" />
    </g>
    <g
       id="g984"
       transform="matrix(0.54645862,0,0,0.54645862,19.395136,-23.093494)">
      <path
         sodipodi:nodetypes="cssscsssssscssccscsscssccsccscccc"
         inkscape:connector-curvature="0"
         id="path963"
         d="m -145.11258,287.78691 c -8.18803,-3.45155 -13.71581,-7.91891 -18.25714,-14.7548 -8.35222,-12.57231 -8.78105,-27.17933 -1.19916,-40.84667 2.19071,-3.94905 2.26864,-4.4229 2.26864,-13.79438 v -9.70486 l -2.55711,-3.59252 c -1.40641,-1.97589 -3.44252,-5.35737 -4.52469,-7.5144 -2.31092,-4.60623 -4.88445,-6.72108 -13.69663,-11.2555 -5.64379,-2.90407 -7.11843,-3.34344 -11.22162,-3.34344 -20.38031,0 -37.74911,-17.00693 -37.82985,-37.04168 -0.0454,-11.25603 3.43728,-19.72308 11.32502,-27.53358 11.88454,-11.76817 27.84258,-14.65834 42.89244,-7.76829 4.83493,2.21351 13.34474,10.00251 16.75839,15.33891 1.96232,3.06759 3.8483,4.71409 8.80222,7.68451 10.56337,6.3339 10.80655,6.4213 16.41398,5.89895 2.75543,-0.25667 6.78566,-0.16932 8.95608,0.19411 3.88499,0.65055 4.05498,0.59728 10.9613,-3.43498 8.16771,-4.76872 10.03567,-6.35817 12.0201,-10.22799 2.34804,-4.57892 10.768303,-12.94722 15.640633,-15.54415 17.26186,-9.20048 37.9354,-4.19421 48.86142,11.83221 10.66305,15.64066 9.04478,35.11673 -4.02794,48.4767 -6.53073,6.67424 -13.38196,9.74883 -25.43722,11.41535 -6.14638,0.84967 -9.23732,2.10542 -18.50478,7.51789 -4.06029,2.37134 -5.70404,3.87107 -7.26953,6.63258 -1.11257,1.96261 -2.99199,5.12896 -4.17647,7.03634 -2.110213,3.3981 -2.153603,3.68981 -2.153603,14.47948 v 11.01152 l 3.130523,6.52415 c 2.79913,5.83356 3.16928,7.26556 3.49686,13.52843 0.20159,3.85408 -0.0127,8.77195 -0.47651,10.93454 -2.36336,11.01995 -10.372063,21.10695 -20.882403,26.30143 -5.74707,2.84037 -6.0924,2.91084 -15.41736,3.1461 -8.70732,0.21969 -9.91831,0.0806 -13.89559,-1.59596 z"
         style="opacity:1;fill:#2d2d2d;fill-opacity:1;stroke:#9ade00;stroke-width:3;stroke-miterlimit:4;stroke-dasharray:none;stroke-opacity:1" />
      <path
         style="opacity:1;fill:#382f86;fill-opacity:1;stroke:#382e86;stroke-width:3;stroke-miterlimit:4;stroke-dasharray:none;stroke-opacity:1"
         d="m -145.11258,287.78691 c -8.18803,-3.45155 -13.71581,-7.91891 -18.25714,-14.7548 -8.35222,-12.57231 -8.78105,-27.17933 -1.19916,-40.84667 2.19071,-3.94905 2.26864,-4.4229 2.26864,-13.79438 v -9.70486 l -2.55711,-3.59252 c -1.40641,-1.97589 -3.44252,-5.35737 -4.52469,-7.5144 -2.31092,-4.60623 -4.88445,-6.72108 -13.69663,-11.2555 -5.64379,-2.90407 -7.11843,-3.34344 -11.22162,-3.34344 -20.38031,0 -37.74911,-17.00693 -37.82985,-37.04168 -0.0454,-11.25603 3.43728,-19.72308 11.32502,-27.53358 11.88454,-11.76817 27.84258,-14.65834 42.89244,-7.76829 4.83493,2.21351 13.34474,10.00251 16.75839,15.33891 1.96232,3.06759 3.8483,4.71409 8.80222,7.68451 10.56337,6.3339 10.80655,6.4213 16.41398,5.89895 2.75543,-0.25667 6.78566,-0.16932 8.95608,0.19411 3.88499,0.65055 4.05498,0.59728 10.9613,-3.43498 8.16771,-4.76872 10.03567,-6.35817 12.0201,-10.22799 2.34804,-4.57892 10.768303,-12.94722 15.640633,-15.54415 17.26186,-9.20048 37.9354,-4.19421 48.86142,11.83221 10.66305,15.64066 9.04478,35.11673 -4.02794,48.4767 -6.53073,6.67424 -13.38196,9.74883 -25.43722,11.41535 -6.14638,0.84967 -9.23732,2.10542 -18.50478,7.51789 -4.06029,2.37134 -5.70404,3.87107 -7.26953,6.63258 -1.11257,1.96261 -2.99199,5.12896 -4.17647,7.03634 -2.110213,3.3981 -2.153603,3.68981 -2.153603,14.47948 v 11.01152 l 3.130523,6.52415 c 2.79913,5.83356 3.16928,7.26556 3.49686,13.52843 0.20159,3.85408 -0.0127,8.77195 -0.47651,10.93454 -2.36336,11.01995 -10.372063,21.10695 -20.882403,26.30143 -5.74707,2.84037 -6.0924,2.91084 -15.41736,3.1461 -8.70732,0.21969 -9.91831,0.0806 -13.89559,-1.59596 z"
         id="path965"
         inkscape:connector-curvature="0"
         sodipodi:nodetypes="cssscsssssscssccscsscssccsccscccc" />
      <path
         d="m -131.69932,149.42556 a 30.783751,30.783751 0 0 0 -30.78351,30.78351 30.783751,30.783751 0 0 0 30.78351,30.78394 30.783751,30.783751 0 0 0 30.78394,-30.78394 30.783751,30.783751 0 0 0 -30.78394,-30.78351 z m 0,12.25039 a 18.533272,18.533272 0 0 1 18.53354,18.53312 18.533272,18.533272 0 0 1 -18.53354,18.53353 18.533272,18.533272 0 0 1 -18.5331,-18.53353 18.533272,18.533272 0 0 1 18.5331,-18.53312 z m 15.39181,18.53333 a 15.391585,15.391585 0 0 1 -15.39159,15.39159 15.391585,15.391585 0 0 1 -15.39158,-15.39159 15.391585,15.391585 0 0 1 15.39158,-15.39158 15.391585,15.391585 0 0 1 15.39159,15.39158 z"
         style="opacity:1;fill:#0e232e;fill-opacity:1;stroke:none;stroke-width:0.70210028;stroke-miterlimit:4;stroke-dasharray:none;stroke-opacity:1"
         id="path967"
         inkscape:connector-curvature="0" />
      <path
         inkscape:connector-curvature="0"
         id="path969"
         style="opacity:1;fill:#0e232e;fill-opacity:1;stroke:none;stroke-width:0.70210028;stroke-miterlimit:4;stroke-dasharray:none;stroke-opacity:1"
         d="m -193.69732,113.6906 a 30.783751,30.783751 0 0 0 -30.78351,30.78351 30.783751,30.783751 0 0 0 30.78351,30.78394 30.783751,30.783751 0 0 0 30.78394,-30.78394 30.783751,30.783751 0 0 0 -30.78394,-30.78351 z m 0,12.2504 a 18.533272,18.533272 0 0 1 18.53354,18.53311 18.533272,18.533272 0 0 1 -18.53354,18.53353 18.533272,18.533272 0 0 1 -18.5331,-18.53353 18.533272,18.533272 0 0 1 18.5331,-18.53311 z m 15.39181,18.53332 a 15.391585,15.391585 0 0 1 -15.39159,15.39159 15.391585,15.391585 0 0 1 -15.39158,-15.39159 15.391585,15.391585 0 0 1 15.39158,-15.39158 15.391585,15.391585 0 0 1 15.39159,15.39158 z" />
      <path
         d="m -69.701317,112.39897 a 30.783751,30.783751 0 0 0 -30.783513,30.78352 30.783751,30.783751 0 0 0 30.783513,30.78394 30.783751,30.783751 0 0 0 30.78394,-30.78394 30.783751,30.783751 0 0 0 -30.78394,-30.78352 z m 0,12.2504 a 18.533272,18.533272 0 0 1 18.53354,18.53312 18.533272,18.533272 0 0 1 -18.53354,18.53353 18.533272,18.533272 0 0 1 -18.5331,-18.53353 18.533272,18.533272 0 0 1 18.5331,-18.53312 z m 15.39181,18.53333 a 15.391585,15.391585 0 0 1 -15.39159,15.39159 15.391585,15.391585 0 0 1 -15.39158,-15.39159 15.391585,15.391585 0 0 1 15.39158,-15.39158 15.391585,15.391585 0 0 1 15.39159,15.39158 z"
         style="opacity:1;fill:#0e232e;fill-opacity:1;stroke:none;stroke-width:0.70210028;stroke-miterlimit:4;stroke-dasharray:none;stroke-opacity:1"
         id="path971"
         inkscape:connector-curvature="0" />
      <path
         inkscape:connector-curvature="0"
         id="path973"
         style="opacity:1;fill:#0e232e;fill-opacity:1;stroke:none;stroke-width:0.70210028;stroke-miterlimit:4;stroke-dasharray:none;stroke-opacity:1"
         d="m -131.69932,220.46493 a 30.783751,30.783751 0 0 0 -30.78351,30.78351 30.783751,30.783751 0 0 0 30.78351,30.78394 30.783751,30.783751 0 0 0 30.78394,-30.78394 30.783751,30.783751 0 0 0 -30.78394,-30.78351 z m 0,12.2504 a 18.533272,18.533272 0 0 1 18.53354,18.53311 18.533272,18.533272 0 0 1 -18.53354,18.53353 18.533272,18.533272 0 0 1 -18.5331,-18.53353 18.533272,18.533272 0 0 1 18.5331,-18.53311 z m 15.39181,18.53332 a 15.391585,15.391585 0 0 1 -15.39159,15.39159 15.391585,15.391585 0 0 1 -15.39158,-15.39159 15.391585,15.391585 0 0 1 15.39158,-15.39158 15.391585,15.391585 0 0 1 15.39159,15.39158 z" />
      <path
         d="m -92.035156,16.818359 c -7.613725,-0.426428 -15.462404,1.225635 -22.705074,5.085938 -3.31637,1.767606 -6.67667,4.661182 -9.89844,7.863281 -3.22177,3.202099 -6.06782,6.425426 -7.76563,9.736328 -0.83413,1.626643 -1.23383,2.20558 -2.52343,3.302735 -1.28961,1.097154 -3.61402,2.611469 -7.63477,4.958984 -3.44638,2.012173 -5.17137,2.894898 -5.625,3.037109 -0.45363,0.142212 -0.19758,0.126448 -2.10742,-0.193359 -3.0068,-0.503479 -6.91338,-0.544541 -10.20117,-0.238281 -2.77216,0.258235 -3.00367,0.339913 -4.26953,-0.115235 -1.26587,-0.455148 -3.94059,-1.955474 -9.2168,-5.11914 -4.74279,-2.843823 -5.5899,-3.60018 -7.21875,-6.146485 -4.22662,-6.607279 -12.03302,-14.022299 -18.81445,-17.126953 -16.68772,-7.639882 -35.15703,-4.280742 -48.29493,8.728516 -8.62186,8.537438 -12.80335,18.71997 -12.7539,30.980469 0.0919,22.811551 19.59062,41.845704 42.65429,41.845704 3.75861,0 3.49753,-0.0298 9.01368,2.80859 4.30466,2.21502 6.89118,3.77319 8.43164,5.03906 1.54045,1.26588 2.19585,2.16386 3.16211,4.08985 1.26413,2.51974 3.26834,5.84732 4.90625,8.14844 l 1.6621,2.33789 v 8.16406 c 0,4.67222 -0.0644,7.03104 -0.24804,8.14648 -0.18363,1.11545 -0.34834,1.38201 -1.41602,3.30664 -8.3266,15.00979 -7.86268,31.91403 1.40039,45.85743 5.00389,7.53216 11.55793,12.80105 20.40235,16.52929 2.10605,0.88778 4.09878,1.58018 6.49609,1.85547 2.39731,0.2753 5.00767,0.22782 9.39258,0.11719 9.34569,-0.23578 11.64537,-0.78187 17.43359,-3.64258 11.86166,-5.86234 20.75757,-17.00075 23.46289,-29.61523 0.71428,-3.33045 0.79826,-7.95137 0.57617,-12.19727 -0.3355,-6.41443 -1.10442,-9.40198 -3.96484,-15.36328 l -2.6543,-5.53516 v -9.91406 c 0,-5.38856 0.0585,-8.13193 0.23243,-9.30273 0.17391,-1.1708 0.16341,-0.97427 1.19336,-2.63282 1.23896,-1.99511 3.10998,-5.14535 4.27539,-7.20117 1.22065,-2.15322 1.72288,-2.63518 5.50781,-4.8457 9.144729,-5.3408 11.005297,-6.11481 16.730468,-6.90625 12.607039,-1.7428 21.032423,-5.470082 28.224609,-12.820313 C -49.616939,74.949088 -47.78227,52.64355 -59.623047,35.275391 -67.28408,24.038092 -79.345834,17.52906 -92.035156,16.818359 Z"
         id="path975"
         style="opacity:1;fill:none;fill-opacity:1;stroke:#0e232e;stroke-width:3;stroke-miterlimit:4;stroke-dasharray:none;stroke-opacity:1"
         inkscape:original="M -92.304688 21.634766 C -99.043478 21.257341 -105.9975 22.709976 -112.4707 26.160156 C -117.34303 28.757086 -125.76329 37.126158 -128.11133 41.705078 C -130.09576 45.574898 -131.96315 47.162921 -140.13086 51.931641 C -147.03718 55.963901 -147.20681 56.017738 -151.0918 55.367188 C -153.26222 55.003758 -157.2934 54.917158 -160.04883 55.173828 C -165.65626 55.696178 -165.89952 55.607337 -176.46289 49.273438 C -181.41681 46.303018 -183.30135 44.657434 -185.26367 41.589844 C -188.67732 36.253444 -197.18851 28.46351 -202.02344 26.25 C -217.0733 19.35995 -233.03148 22.251361 -244.91602 34.019531 C -252.80376 41.830031 -256.28563 50.296704 -256.24023 61.552734 C -256.15949 81.587484 -238.79047 98.59375 -218.41016 98.59375 C -214.30697 98.59375 -212.83324 99.033424 -207.18945 101.9375 C -198.37727 106.47192 -195.80311 108.58713 -193.49219 113.19336 C -192.41002 115.35039 -190.37321 118.73114 -188.9668 120.70703 L -186.41016 124.30078 L -186.41016 134.00586 C -186.41016 143.37734 -186.48898 143.84978 -188.67969 147.79883 C -196.26158 161.46617 -195.83269 176.07417 -187.48047 188.64648 C -182.93914 195.48237 -177.41069 199.94884 -169.22266 203.40039 C -165.24538 205.07695 -164.03545 205.21578 -155.32812 204.99609 C -146.00316 204.76083 -145.65723 204.69193 -139.91016 201.85156 C -129.39982 196.65708 -121.3907 186.56878 -119.02734 175.54883 C -118.56353 173.38624 -118.34919 168.46931 -118.55078 164.61523 C -118.87836 158.35236 -119.2497 156.9195 -122.04883 151.08594 L -125.17773 144.5625 L -125.17773 133.55078 C -125.17773 122.76111 -125.1356 122.46841 -123.02539 119.07031 C -121.84091 117.16293 -119.96023 113.99777 -118.84766 112.03516 C -117.28217 109.27365 -115.63841 107.77368 -111.57812 105.40234 C -102.31067 99.989868 -99.220599 98.734436 -93.074219 97.884766 C -81.018959 96.218246 -74.167449 93.14299 -67.636719 86.46875 C -54.563999 73.108789 -52.946325 53.632847 -63.609375 37.992188 C -70.438137 27.975675 -81.07337 22.263807 -92.304688 21.634766 z "
         inkscape:radius="4.8236122"
         sodipodi:type="inkscape:offset"
         transform="translate(24.110333,84.386161)" />
    </g>
    <g
       id="g1298"
       transform="matrix(0.54645862,0,0,0.54645862,63.315039,-1.1335411)">
      <path
         style="opacity:1;fill:#2d2d2d;fill-opacity:1;stroke:#9ade00;stroke-width:3;stroke-miterlimit:4;stroke-dasharray:none;stroke-opacity:1"
         d="m 18.06668,247.60097 c -8.18803,-3.45155 -13.71581,-7.91891 -18.25714,-14.7548 -8.35222,-12.57231 -8.78105,-27.17933 -1.19916,-40.84667 2.19071,-3.94905 2.26864,-4.4229 2.26864,-13.79438 v -9.70486 l -2.55711,-3.59252 c -1.40641,-1.97589 -3.44252,-5.35737 -4.52469,-7.5144 -2.31092,-4.60623 -4.88445,-6.72108 -13.69663,-11.2555 -5.64379,-2.90407 -7.11843,-3.34344 -11.22162,-3.34344 -20.38031,0 -37.74911,-17.00693 -37.82985,-37.04168 -0.0454,-11.256029 3.43728,-19.723079 11.32502,-27.533579 11.88454,-11.76817 27.84258,-14.65834 42.89244,-7.76829 4.83493,2.21351 13.34474,10.00251 16.75839,15.33891 1.96232,3.06759 3.8483,4.71409 8.80222,7.68451 10.56337,6.3339 10.80655,6.4213 16.41398,5.89895 2.75543,-0.25667 6.78566,-0.16932 8.95608,0.19411 3.88499,0.650549 4.05498,0.597279 10.9613,-3.43498 8.16771,-4.76872 10.03567,-6.35817 12.0201,-10.22799 2.34804,-4.57892 10.768303,-12.94722 15.640633,-15.54415 17.26186,-9.20048 37.935397,-4.19421 48.861417,11.83221 10.66305,15.64066 9.04478,35.116729 -4.02794,48.476699 -6.53073,6.67424 -13.38196,9.74883 -25.437217,11.41535 -6.14638,0.84967 -9.23732,2.10542 -18.50478,7.51789 -4.06029,2.37134 -5.70404,3.87107 -7.26953,6.63258 -1.11257,1.96261 -2.99199,5.12896 -4.17647,7.03634 -2.110213,3.3981 -2.153603,3.68981 -2.153603,14.47948 v 11.01152 l 3.130523,6.52415 c 2.79913,5.83356 3.16928,7.26556 3.49686,13.52843 0.20159,3.85408 -0.0127,8.77195 -0.47651,10.93454 -2.36336,11.01995 -10.372063,21.10695 -20.882403,26.30143 -5.74707,2.84037 -6.0924,2.91084 -15.41736,3.1461 -8.70732,0.21969 -9.91831,0.0806 -13.89559,-1.59596 z"
         id="path1013"
         inkscape:connector-curvature="0"
         sodipodi:nodetypes="cssscsssssscssccscsscssccsccscccc" />
      <path
         sodipodi:nodetypes="cssscsssssscssccscsscssccsccscccc"
         inkscape:connector-curvature="0"
         id="path1015"
         d="m 18.06668,247.60097 c -8.18803,-3.45155 -13.71581,-7.91891 -18.25714,-14.7548 -8.35222,-12.57231 -8.78105,-27.17933 -1.19916,-40.84667 2.19071,-3.94905 2.26864,-4.4229 2.26864,-13.79438 v -9.70486 l -2.55711,-3.59252 c -1.40641,-1.97589 -3.44252,-5.35737 -4.52469,-7.5144 -2.31092,-4.60623 -4.88445,-6.72108 -13.69663,-11.2555 -5.64379,-2.90407 -7.11843,-3.34344 -11.22162,-3.34344 -20.38031,0 -37.74911,-17.00693 -37.82985,-37.04168 -0.0454,-11.256029 3.43728,-19.723079 11.32502,-27.533579 11.88454,-11.76817 27.84258,-14.65834 42.89244,-7.76829 4.83493,2.21351 13.34474,10.00251 16.75839,15.33891 1.96232,3.06759 3.8483,4.71409 8.80222,7.68451 10.56337,6.3339 10.80655,6.4213 16.41398,5.89895 2.75543,-0.25667 6.78566,-0.16932 8.95608,0.19411 3.88499,0.650549 4.05498,0.597279 10.9613,-3.43498 8.16771,-4.76872 10.03567,-6.35817 12.0201,-10.22799 2.34804,-4.57892 10.768303,-12.94722 15.640633,-15.54415 17.26186,-9.20048 37.935397,-4.19421 48.861417,11.83221 10.66305,15.64066 9.04478,35.116729 -4.02794,48.476699 -6.53073,6.67424 -13.38196,9.74883 -25.437217,11.41535 -6.14638,0.84967 -9.23732,2.10542 -18.50478,7.51789 -4.06029,2.37134 -5.70404,3.87107 -7.26953,6.63258 -1.11257,1.96261 -2.99199,5.12896 -4.17647,7.03634 -2.110213,3.3981 -2.153603,3.68981 -2.153603,14.47948 v 11.01152 l 3.130523,6.52415 c 2.79913,5.83356 3.16928,7.26556 3.49686,13.52843 0.20159,3.85408 -0.0127,8.77195 -0.47651,10.93454 -2.36336,11.01995 -10.372063,21.10695 -20.882403,26.30143 -5.74707,2.84037 -6.0924,2.91084 -15.41736,3.1461 -8.70732,0.21969 -9.91831,0.0806 -13.89559,-1.59596 z"
         style="opacity:1;fill:#ff6600;fill-opacity:1;stroke:#ff6600;stroke-width:3;stroke-miterlimit:4;stroke-dasharray:none;stroke-opacity:1" />
      <path
         inkscape:connector-curvature="0"
         id="path1017"
         style="opacity:1;fill:#0e232e;fill-opacity:1;stroke:none;stroke-width:0.70210028;stroke-miterlimit:4;stroke-dasharray:none;stroke-opacity:1"
         d="M 31.47994,109.23962 A 30.783751,30.783751 0 0 0 0.69643,140.02313 30.783751,30.783751 0 0 0 31.47994,170.80707 30.783751,30.783751 0 0 0 62.26388,140.02313 30.783751,30.783751 0 0 0 31.47994,109.23962 Z m 0,12.25039 a 18.533272,18.533272 0 0 1 18.53354,18.53312 18.533272,18.533272 0 0 1 -18.53354,18.53353 18.533272,18.533272 0 0 1 -18.5331,-18.53353 18.533272,18.533272 0 0 1 18.5331,-18.53312 z m 15.39181,18.53333 a 15.391585,15.391585 0 0 1 -15.39159,15.39159 15.391585,15.391585 0 0 1 -15.39158,-15.39159 15.391585,15.391585 0 0 1 15.39158,-15.39158 15.391585,15.391585 0 0 1 15.39159,15.39158 z" />
      <path
         d="m -30.51806,73.504661 a 30.783751,30.783751 0 0 0 -30.78351,30.783509 30.783751,30.783751 0 0 0 30.78351,30.78394 30.783751,30.783751 0 0 0 30.78394,-30.78394 30.783751,30.783751 0 0 0 -30.78394,-30.783509 z m 0,12.2504 a 18.533272,18.533272 0 0 1 18.53354,18.533109 18.533272,18.533272 0 0 1 -18.53354,18.53353 18.533272,18.533272 0 0 1 -18.5331,-18.53353 18.533272,18.533272 0 0 1 18.5331,-18.533109 z m 15.39181,18.533319 a 15.391585,15.391585 0 0 1 -15.39159,15.39159 15.391585,15.391585 0 0 1 -15.39158,-15.39159 15.391585,15.391585 0 0 1 15.39158,-15.391579 15.391585,15.391585 0 0 1 15.39159,15.391579 z"
         style="opacity:1;fill:#0e232e;fill-opacity:1;stroke:none;stroke-width:0.70210028;stroke-miterlimit:4;stroke-dasharray:none;stroke-opacity:1"
         id="path1019"
         inkscape:connector-curvature="0" />
      <path
         inkscape:connector-curvature="0"
         id="path1021"
         style="opacity:1;fill:#0e232e;fill-opacity:1;stroke:none;stroke-width:0.70210028;stroke-miterlimit:4;stroke-dasharray:none;stroke-opacity:1"
         d="M 93.477943,72.213031 A 30.783751,30.783751 0 0 0 62.69443,102.99655 30.783751,30.783751 0 0 0 93.477943,133.78049 30.783751,30.783751 0 0 0 124.26188,102.99655 30.783751,30.783751 0 0 0 93.477943,72.213031 Z m 0,12.2504 a 18.533272,18.533272 0 0 1 18.533537,18.533119 18.533272,18.533272 0 0 1 -18.533537,18.53353 18.533272,18.533272 0 0 1 -18.5331,-18.53353 18.533272,18.533272 0 0 1 18.5331,-18.533119 z m 15.391807,18.533329 a 15.391585,15.391585 0 0 1 -15.391587,15.39159 15.391585,15.391585 0 0 1 -15.39158,-15.39159 15.391585,15.391585 0 0 1 15.39158,-15.391579 15.391585,15.391585 0 0 1 15.391587,15.391579 z" />
      <path
         d="M 31.47994,180.27899 A 30.783751,30.783751 0 0 0 0.69643,211.0625 30.783751,30.783751 0 0 0 31.47994,241.84644 30.783751,30.783751 0 0 0 62.26388,211.0625 30.783751,30.783751 0 0 0 31.47994,180.27899 Z m 0,12.2504 a 18.533272,18.533272 0 0 1 18.53354,18.53311 18.533272,18.533272 0 0 1 -18.53354,18.53353 18.533272,18.533272 0 0 1 -18.5331,-18.53353 18.533272,18.533272 0 0 1 18.5331,-18.53311 z m 15.39181,18.53332 A 15.391585,15.391585 0 0 1 31.48016,226.4543 15.391585,15.391585 0 0 1 16.08858,211.06271 15.391585,15.391585 0 0 1 31.48016,195.67113 15.391585,15.391585 0 0 1 46.87175,211.06271 Z"
         style="opacity:1;fill:#0e232e;fill-opacity:1;stroke:none;stroke-width:0.70210028;stroke-miterlimit:4;stroke-dasharray:none;stroke-opacity:1"
         id="path1023"
         inkscape:connector-curvature="0" />
      <path
         transform="translate(187.28959,44.200222)"
         sodipodi:type="inkscape:offset"
         inkscape:radius="4.8236122"
         inkscape:original="M -92.304688 21.634766 C -99.043478 21.257341 -105.9975 22.709976 -112.4707 26.160156 C -117.34303 28.757086 -125.76329 37.126158 -128.11133 41.705078 C -130.09576 45.574898 -131.96315 47.162921 -140.13086 51.931641 C -147.03718 55.963901 -147.20681 56.017738 -151.0918 55.367188 C -153.26222 55.003758 -157.2934 54.917158 -160.04883 55.173828 C -165.65626 55.696178 -165.89952 55.607337 -176.46289 49.273438 C -181.41681 46.303018 -183.30135 44.657434 -185.26367 41.589844 C -188.67732 36.253444 -197.18851 28.46351 -202.02344 26.25 C -217.0733 19.35995 -233.03148 22.251361 -244.91602 34.019531 C -252.80376 41.830031 -256.28563 50.296704 -256.24023 61.552734 C -256.15949 81.587484 -238.79047 98.59375 -218.41016 98.59375 C -214.30697 98.59375 -212.83324 99.033424 -207.18945 101.9375 C -198.37727 106.47192 -195.80311 108.58713 -193.49219 113.19336 C -192.41002 115.35039 -190.37321 118.73114 -188.9668 120.70703 L -186.41016 124.30078 L -186.41016 134.00586 C -186.41016 143.37734 -186.48898 143.84978 -188.67969 147.79883 C -196.26158 161.46617 -195.83269 176.07417 -187.48047 188.64648 C -182.93914 195.48237 -177.41069 199.94884 -169.22266 203.40039 C -165.24538 205.07695 -164.03545 205.21578 -155.32812 204.99609 C -146.00316 204.76083 -145.65723 204.69193 -139.91016 201.85156 C -129.39982 196.65708 -121.3907 186.56878 -119.02734 175.54883 C -118.56353 173.38624 -118.34919 168.46931 -118.55078 164.61523 C -118.87836 158.35236 -119.2497 156.9195 -122.04883 151.08594 L -125.17773 144.5625 L -125.17773 133.55078 C -125.17773 122.76111 -125.1356 122.46841 -123.02539 119.07031 C -121.84091 117.16293 -119.96023 113.99777 -118.84766 112.03516 C -117.28217 109.27365 -115.63841 107.77368 -111.57812 105.40234 C -102.31067 99.989868 -99.220599 98.734436 -93.074219 97.884766 C -81.018959 96.218246 -74.167449 93.14299 -67.636719 86.46875 C -54.563999 73.108789 -52.946325 53.632847 -63.609375 37.992188 C -70.438137 27.975675 -81.07337 22.263807 -92.304688 21.634766 z "
         style="opacity:1;fill:none;fill-opacity:1;stroke:#0e232e;stroke-width:3;stroke-miterlimit:4;stroke-dasharray:none;stroke-opacity:1"
         id="path1025"
         d="m -92.035156,16.818359 c -7.613725,-0.426428 -15.462404,1.225635 -22.705074,5.085938 -3.31637,1.767606 -6.67667,4.661182 -9.89844,7.863281 -3.22177,3.202099 -6.06782,6.425426 -7.76563,9.736328 -0.83413,1.626643 -1.23383,2.20558 -2.52343,3.302735 -1.28961,1.097154 -3.61402,2.611469 -7.63477,4.958984 -3.44638,2.012173 -5.17137,2.894898 -5.625,3.037109 -0.45363,0.142212 -0.19758,0.126448 -2.10742,-0.193359 -3.0068,-0.503479 -6.91338,-0.544541 -10.20117,-0.238281 -2.77216,0.258235 -3.00367,0.339913 -4.26953,-0.115235 -1.26587,-0.455148 -3.94059,-1.955474 -9.2168,-5.11914 -4.74279,-2.843823 -5.5899,-3.60018 -7.21875,-6.146485 -4.22662,-6.607279 -12.03302,-14.022299 -18.81445,-17.126953 -16.68772,-7.639882 -35.15703,-4.280742 -48.29493,8.728516 -8.62186,8.537438 -12.80335,18.71997 -12.7539,30.980469 0.0919,22.811551 19.59062,41.845704 42.65429,41.845704 3.75861,0 3.49753,-0.0298 9.01368,2.80859 4.30466,2.21502 6.89118,3.77319 8.43164,5.03906 1.54045,1.26588 2.19585,2.16386 3.16211,4.08985 1.26413,2.51974 3.26834,5.84732 4.90625,8.14844 l 1.6621,2.33789 v 8.16406 c 0,4.67222 -0.0644,7.03104 -0.24804,8.14648 -0.18363,1.11545 -0.34834,1.38201 -1.41602,3.30664 -8.3266,15.00979 -7.86268,31.91403 1.40039,45.85743 5.00389,7.53216 11.55793,12.80105 20.40235,16.52929 2.10605,0.88778 4.09878,1.58018 6.49609,1.85547 2.39731,0.2753 5.00767,0.22782 9.39258,0.11719 9.34569,-0.23578 11.64537,-0.78187 17.43359,-3.64258 11.86166,-5.86234 20.75757,-17.00075 23.46289,-29.61523 0.71428,-3.33045 0.79826,-7.95137 0.57617,-12.19727 -0.3355,-6.41443 -1.10442,-9.40198 -3.96484,-15.36328 l -2.6543,-5.53516 v -9.91406 c 0,-5.38856 0.0585,-8.13193 0.23243,-9.30273 0.17391,-1.1708 0.16341,-0.97427 1.19336,-2.63282 1.23896,-1.99511 3.10998,-5.14535 4.27539,-7.20117 1.22065,-2.15322 1.72288,-2.63518 5.50781,-4.8457 9.144729,-5.3408 11.005297,-6.11481 16.730468,-6.90625 12.607039,-1.7428 21.032423,-5.470082 28.224609,-12.820313 C -49.616939,74.949088 -47.78227,52.64355 -59.623047,35.275391 -67.28408,24.038092 -79.345834,17.52906 -92.035156,16.818359 Z" />
    </g>
  </g>
</svg>
